{
    "asset" : {
        "generator" : "Khronos glTF Blender I/O v3.4.50",
        "version" : "2.0"
    },
    "scene" : 0,
    "scenes" : [
        {
            "name" : "Scene",
            "nodes" : [
                0
            ]
        }
    ],
    "nodes" : [
        {
            "mesh" : 0,
            "name" : "Path_3",
            "rotation" : [
                0.6970102190971375,
                0,
                0,
                0.7170611619949341
            ],
            "scale" : [
                15.276998519897461,
                15.276998519897461,
                15.276998519897461
            ],
            "translation" : [
                -0.020130276679992676,
                0.1777021288871765,
                -0.1623525619506836
            ]
        }
    ],
    "materials" : [
        {
            "doubleSided" : true,
            "name" : "SVGMat.004",
            "pbrMetallicRoughness" : {
                "baseColorFactor" : [
                    0.10860440135002136,
                    0.10860440135002136,
                    0.10860440135002136,
                    1
                ],
                "metallicFactor" : 0.48356810212135315,
                "roughnessFactor" : 0.26760563254356384
            }
        }
    ],
    "meshes" : [
        {
            "name" : "Path_3.002",
            "primitives" : [
                {
                    "attributes" : {
                        "POSITION" : 0,
                        "TEXCOORD_0" : 1,
                        "NORMAL" : 2
                    },
                    "indices" : 3,
                    "material" : 0
                }
            ]
        }
    ],
    "accessors" : [
        {
            "bufferView" : 0,
            "componentType" : 5126,
            "count" : 102,
            "max" : [
                0.09663704037666321,
                0.019999999552965164,
                0.1438019871711731
            ],
            "min" : [
                -0.09661009907722473,
                -0.019999999552965164,
                -0.16093987226486206
            ],
            "type" : "VEC3"
        },
        {
            "bufferView" : 1,
            "componentType" : 5126,
            "count" : 102,
            "type" : "VEC2"
        },
        {
            "bufferView" : 2,
            "componentType" : 5126,
            "count" : 102,
            "type" : "VEC3"
        },
        {
            "bufferView" : 3,
            "componentType" : 5123,
            "count" : 240,
            "type" : "SCALAR"
        }
    ],
    "bufferViews" : [
        {
            "buffer" : 0,
            "byteLength" : 1224,
            "byteOffset" : 0,
            "target" : 34962
        },
        {
            "buffer" : 0,
            "byteLength" : 816,
            "byteOffset" : 1224,
            "target" : 34962
        },
        {
            "buffer" : 0,
            "byteLength" : 1224,
            "byteOffset" : 2040,
            "target" : 34962
        },
        {
            "buffer" : 0,
            "byteLength" : 480,
            "byteOffset" : 3264,
            "target" : 34963
        }
    ],
    "buffers" : [
        {
            "byteLength" : 3744,
            "uri" : "wua-v4.bin"
        }
    ]
}
